<svg width="159" height="41" viewBox="0 0 159 41" fill="none" xmlns="http://www.w3.org/2000/svg">
<rect y="0.910156" width="40" height="40" rx="20" fill="#EBE2DB"/>
<path d="M23.6796 32C22.7018 32 21.866 31.8265 21.172 31.4796C20.4781 31.1326 19.9498 30.6437 19.5871 30.0129C19.2244 29.3821 19.043 28.6487 19.043 27.8129C19.043 27.6394 19.043 27.4581 19.043 27.2688C19.0588 27.0953 19.0824 26.9061 19.114 26.7011C17.8996 26.6853 16.7957 26.4566 15.8022 26.0151C14.8086 25.5735 13.9491 24.9742 13.2237 24.2172C12.514 23.4602 11.962 22.5849 11.5677 21.5914C11.1892 20.5821 11 19.5097 11 18.3742C11 17.2072 11.1971 16.119 11.5914 15.1097C12.0014 14.1004 12.5771 13.2172 13.3183 12.4602C14.0753 11.6875 14.9821 11.0882 16.0387 10.6624C17.0953 10.2208 18.2703 10 19.5634 10C20.8566 10 22.0315 10.205 23.0882 10.6151C24.1448 11.0251 25.0516 11.6086 25.8086 12.3656C26.5656 13.1226 27.1412 13.9978 27.5355 14.9914C27.9455 15.9849 28.1505 17.0652 28.1505 18.2323V27.3398C28.1505 28.1756 27.9849 28.9484 27.6538 29.6581C27.3384 30.3677 26.8495 30.9355 26.1871 31.3613C25.5247 31.7871 24.6889 32 23.6796 32ZM23.4667 28.6172C23.7663 28.6172 23.995 28.491 24.1527 28.2387C24.3262 28.0022 24.4129 27.6867 24.4129 27.2925V23.4366C23.9556 23.8308 23.5928 24.2251 23.3247 24.6194C23.0724 25.0136 22.891 25.3842 22.7806 25.7312C22.6703 26.0781 22.5993 26.3857 22.5677 26.6538C22.552 26.9219 22.5441 27.1348 22.5441 27.2925C22.5441 27.5763 22.5835 27.8129 22.6624 28.0022C22.7412 28.2072 22.8516 28.357 22.9935 28.4516C23.1513 28.562 23.309 28.6172 23.4667 28.6172ZM19.4215 23.3419C19.595 23.3419 19.7527 23.334 19.8946 23.3183C20.0523 23.3025 20.21 23.2789 20.3677 23.2473C20.6516 22.8215 20.9828 22.4036 21.3613 21.9935C21.7398 21.5677 22.1656 21.1577 22.6387 20.7634C23.1118 20.3692 23.6323 19.9986 24.2 19.6516V18.114C24.2 17.4358 24.0817 16.805 23.8452 16.2215C23.6244 15.638 23.3011 15.1333 22.8753 14.7075C22.4652 14.2817 21.9763 13.9505 21.4086 13.714C20.8566 13.4774 20.2495 13.3591 19.5871 13.3591C18.9247 13.3591 18.3097 13.4853 17.7419 13.7376C17.19 13.9742 16.7011 14.3211 16.2753 14.7785C15.8652 15.2358 15.5419 15.772 15.3054 16.3871C15.0846 16.9864 14.9742 17.6409 14.9742 18.3505C14.9742 19.0602 15.0767 19.7147 15.2817 20.314C15.5025 20.9133 15.81 21.4416 16.2043 21.8989C16.6143 22.3405 17.0875 22.6875 17.6237 22.9398C18.1756 23.1921 18.7749 23.3262 19.4215 23.3419Z" fill="#385C5E"/>
<path d="M60.0456 25.7099V20.7599H64.6716V19.1579H54.7176C55.0956 18.1319 55.3836 17.0699 55.6716 16.0079H65.0856V14.4059H56.0676C56.2656 13.4339 56.4636 12.4619 56.6256 11.5079L54.8796 11.2919C54.7176 12.2999 54.5376 13.3439 54.3036 14.4059H49.5696V16.0079H53.9436C52.9896 19.6619 51.4596 23.1719 48.8496 25.4579C49.1916 25.7999 49.6956 26.4119 49.9656 26.7899C52.0536 24.8999 53.4936 22.3799 54.5376 19.6079V20.7599H58.3356V25.7099H52.6476V27.3299H65.3916V25.7099H60.0456Z" fill="#EBE2DB"/>
<path d="M79.2156 12.0839C78.9636 13.0739 78.4596 14.5319 78.0456 15.4139L79.1436 15.8819C79.5576 15.0179 80.0256 13.7219 80.4396 12.5879L79.2156 12.0839ZM75.9396 15.4319C75.7416 14.6039 75.2376 13.1459 74.8236 12.0659L73.6896 12.4079C74.1036 13.5239 74.5356 14.9999 74.7336 15.8639L75.9396 15.4319ZM73.4736 19.6619L72.2676 20.1119V16.3679H73.5636V14.8199H72.2676V11.2919H70.8996V14.8199H69.2976V16.3679H70.8996V20.5979C70.2156 20.8499 69.5676 21.0659 69.0276 21.2459L69.4236 22.7759L70.8996 22.2179V26.0879C70.8996 26.3039 70.8276 26.3579 70.6296 26.3579C70.4496 26.3759 69.9276 26.3759 69.3336 26.3579C69.5316 26.7359 69.6756 27.3479 69.7296 27.6899C70.6836 27.7079 71.2776 27.6539 71.7096 27.4199C72.1056 27.1859 72.2676 26.8079 72.2676 26.0699V21.6779C72.7536 21.4799 73.2756 21.2999 73.7616 21.1019L73.4736 19.6619ZM80.2416 19.1219C80.4576 19.4459 80.6556 19.7699 80.7456 19.9679C80.9616 19.6079 81.1596 19.2119 81.3396 18.7979C81.5736 20.4179 81.9156 21.9299 82.3656 23.2799C81.8076 24.7019 81.1236 25.8719 80.2236 26.6999C80.2416 26.5919 80.2416 26.4659 80.2416 26.3219V19.1219ZM83.8776 15.8099C83.6976 17.7359 83.4276 19.5719 83.0136 21.1919C82.5996 19.7519 82.3296 18.1499 82.1136 16.4939C82.1856 16.2599 82.2396 16.0439 82.3116 15.8099H83.8776ZM85.6596 15.8099V14.3159H82.6356C82.8156 13.3979 82.9776 12.4619 83.1036 11.5079L81.7356 11.2739C81.4656 13.7579 81.0156 16.1699 80.2416 17.9519V16.0979H77.7396V11.2919H76.2996V16.0979H73.8336V27.7799H75.0216V23.6039C75.2376 23.6759 75.5436 23.8019 75.6876 23.8739C75.9576 22.5959 76.2096 20.5979 76.3716 18.8519L75.6156 18.6899C75.4896 20.3099 75.3096 22.1279 75.0216 23.4239V17.4839H76.4976V27.5819H77.5236V18.9599C77.8476 20.5619 78.0996 22.6499 78.1716 23.8379L78.9276 23.6399C78.8376 22.4879 78.5496 20.3819 78.1896 18.7439L77.5236 18.8699V17.4839H78.9816V26.3039C78.9816 26.4479 78.9456 26.4839 78.8016 26.5019C78.6756 26.5019 78.3156 26.5019 77.9016 26.4839C78.0816 26.8259 78.2436 27.3659 78.2796 27.7079C78.9456 27.7079 79.4316 27.6719 79.7916 27.4739C79.9896 27.3299 80.1156 27.1679 80.1696 26.9339C80.5116 27.1859 80.8896 27.5459 81.0876 27.8339C81.8436 27.0959 82.4916 26.1239 83.0136 25.0079C83.4996 26.0879 84.1116 27.0599 84.8316 27.7979C85.0656 27.4199 85.5336 26.8979 85.8756 26.6459C84.9756 25.8359 84.2556 24.6479 83.6796 23.2439C84.3636 21.0839 84.7956 18.5099 85.0296 15.8099H85.6596Z" fill="#EBE2DB"/>
<path d="M105.748 19.1219H98.6016V17.4659C100.654 16.3859 102.868 14.7659 104.398 13.2899L103.138 12.3179L102.76 12.4079H91.3836V14.0459H100.924C99.7536 14.9819 98.1876 15.9539 96.8556 16.5839V19.1219H89.6016V20.7959H96.8556V25.6739C96.8556 25.9979 96.7476 26.0879 96.3696 26.1059C95.9736 26.1239 94.6236 26.1239 93.2556 26.0699C93.5436 26.5379 93.8676 27.3119 93.9756 27.7979C95.6496 27.7979 96.8376 27.7619 97.5936 27.4919C98.3496 27.2399 98.6016 26.7359 98.6016 25.7099V20.7959H105.748V19.1219Z" fill="#EBE2DB"/>
<path d="M116.531 14.1328H118.588V25.5849H124.749V26.3759H116.531V14.1328Z" fill="#EBE2DB"/>
<path d="M130.207 26.5781C129.568 26.5781 128.968 26.458 128.405 26.2177C127.848 25.9775 127.359 25.6523 126.937 25.2421C126.521 24.8261 126.19 24.3427 125.944 23.7919C125.704 23.2353 125.584 22.6406 125.584 22.0078C125.584 21.2519 125.695 20.5517 125.918 19.9072C126.14 19.2626 126.454 18.706 126.858 18.2373C127.263 17.7685 127.749 17.4023 128.317 17.1386C128.891 16.8749 129.527 16.7431 130.224 16.7431C130.846 16.7431 131.414 16.8515 131.93 17.0683C132.445 17.2851 132.888 17.5781 133.257 17.9472C133.626 18.3105 133.913 18.7324 134.118 19.2128C134.323 19.6933 134.426 20.1972 134.426 20.7246H127.386C127.386 21.3574 127.468 21.9462 127.632 22.4912C127.796 23.0302 128.024 23.496 128.317 23.8886C128.61 24.2812 128.962 24.5888 129.372 24.8115C129.782 25.0341 130.23 25.1455 130.717 25.1455C131.127 25.1455 131.519 25.081 131.894 24.9521C132.269 24.8173 132.609 24.6445 132.914 24.4335C133.219 24.2167 133.476 23.9707 133.687 23.6953C133.904 23.414 134.056 23.1269 134.144 22.8339L134.68 23.0712C134.546 23.5576 134.326 24.0146 134.021 24.4423C133.722 24.8642 133.371 25.2333 132.967 25.5498C132.568 25.8662 132.129 26.1181 131.648 26.3056C131.174 26.4873 130.693 26.5781 130.207 26.5781ZM132.079 19.9687C132.079 19.6113 132.014 19.2802 131.886 18.9755C131.763 18.665 131.59 18.3984 131.367 18.1757C131.15 17.9472 130.892 17.7685 130.594 17.6396C130.301 17.5107 129.984 17.4462 129.644 17.4462C129.363 17.4462 129.091 17.5107 128.827 17.6396C128.569 17.7685 128.338 17.9443 128.133 18.1669C127.933 18.3896 127.766 18.6562 127.632 18.9667C127.503 19.2714 127.424 19.6025 127.394 19.9599L132.079 19.9687Z" fill="#EBE2DB"/>
<path d="M141.993 16.9365V17.7275H139.471V26.3759H137.59V17.7275H135.612V16.9365H137.59V15.8291C137.59 15.3134 137.68 14.83 137.862 14.3789C138.05 13.9218 138.302 13.5263 138.618 13.1923C138.934 12.8525 139.306 12.5859 139.734 12.3925C140.162 12.1992 140.619 12.1025 141.105 12.1025C141.521 12.1025 141.89 12.1464 142.213 12.2343C142.541 12.3164 142.816 12.4306 143.039 12.5771C143.262 12.7177 143.431 12.8876 143.549 13.0869C143.666 13.2802 143.724 13.4882 143.724 13.7109C143.724 13.8515 143.698 13.9775 143.645 14.0888C143.593 14.1943 143.522 14.2851 143.434 14.3613C143.347 14.4374 143.244 14.496 143.127 14.5371C143.01 14.5781 142.887 14.5986 142.758 14.5986C142.529 14.5986 142.353 14.5546 142.23 14.4667C142.113 14.3789 142.022 14.2675 141.958 14.1328C141.893 13.998 141.841 13.8544 141.8 13.7021C141.764 13.5439 141.712 13.3974 141.641 13.2626C141.571 13.1279 141.469 13.0166 141.334 12.9287C141.205 12.8408 141.017 12.7968 140.771 12.7968C140.584 12.7968 140.408 12.8525 140.244 12.9638C140.086 13.0693 139.948 13.2099 139.831 13.3857C139.72 13.5615 139.632 13.7636 139.567 13.9921C139.503 14.2207 139.471 14.455 139.471 14.6953V16.9365H141.993Z" fill="#EBE2DB"/>
<path d="M148.558 25.1718C148.306 25.6054 147.972 25.9482 147.556 26.2001C147.14 26.4521 146.628 26.5781 146.018 26.5781C145.702 26.5781 145.427 26.5253 145.192 26.4199C144.964 26.3144 144.773 26.165 144.621 25.9716C144.469 25.7783 144.354 25.5468 144.278 25.2773C144.208 25.0078 144.173 24.7089 144.173 24.3808V17.7275H142.538V17.2617C143.065 17.2617 143.499 17.1679 143.839 16.9804C144.179 16.7871 144.457 16.5292 144.674 16.207C144.89 15.8789 145.06 15.5009 145.183 15.0732C145.306 14.6455 145.415 14.1914 145.509 13.7109H146.045V16.9365H148.163V17.7275H146.045V24.3808C146.045 24.5214 146.071 24.6533 146.124 24.7763C146.177 24.8994 146.247 25.0078 146.335 25.1015C146.429 25.1894 146.537 25.2597 146.66 25.3125C146.789 25.3652 146.924 25.3916 147.064 25.3916C147.275 25.3916 147.466 25.3417 147.636 25.2421C147.811 25.1367 147.964 25.0078 148.093 24.8554L148.558 25.1718Z" fill="#EBE2DB"/>
<path d="M148.664 16.9453H150.8L154.447 23.7568L157.418 16.9453H158.42L153.603 28.0283C153.398 28.4912 153.164 28.8925 152.9 29.2324C152.637 29.5722 152.355 29.8505 152.056 30.0673C151.764 30.29 151.462 30.4541 151.151 30.5595C150.841 30.6708 150.536 30.7265 150.237 30.7265C150.032 30.7265 149.836 30.7001 149.648 30.6474C149.467 30.5947 149.305 30.5185 149.165 30.4189C149.03 30.3251 148.922 30.2109 148.84 30.0761C148.764 29.9414 148.725 29.7949 148.725 29.6367C148.725 29.5078 148.752 29.3789 148.805 29.25C148.857 29.1269 148.93 29.0185 149.024 28.9248C149.124 28.831 149.241 28.7548 149.376 28.6962C149.516 28.6376 149.672 28.6083 149.842 28.6083C150.041 28.6083 150.196 28.6289 150.307 28.6699C150.425 28.7167 150.53 28.7666 150.624 28.8193C150.718 28.8779 150.817 28.9277 150.923 28.9687C151.028 29.0156 151.172 29.039 151.353 29.039C151.547 29.039 151.72 28.9833 151.872 28.872C152.024 28.7607 152.162 28.6201 152.285 28.4501C152.408 28.2861 152.516 28.1044 152.61 27.9052C152.704 27.706 152.789 27.5214 152.865 27.3515L153.498 25.9365L148.664 16.9453Z" fill="#EBE2DB"/>
</svg>
